<?xml version="1.0" encoding="UTF-8"?>
<!DOCTYPE svg PUBLIC "-//W3C//DTD SVG 1.1//EN" "http://www.w3.org/Graphics/SVG/1.1/DTD/svg11.dtd">
<svg xmlns="http://www.w3.org/2000/svg" version="1.1" width="500px" height="500px" style="shape-rendering:geometricPrecision; text-rendering:geometricPrecision; image-rendering:optimizeQuality; fill-rule:evenodd; clip-rule:evenodd" xmlns:xlink="http://www.w3.org/1999/xlink">
<g><path style="opacity:1" fill="#042247" d="M 264.5,45.5 C 266.877,48.4181 269.877,50.4181 273.5,51.5C 274.583,51.5394 275.583,51.8728 276.5,52.5C 284.502,60.3346 292.668,68.0013 301,75.5C 309.79,71.0221 318.957,67.5221 328.5,65C 331.783,64.2571 334.783,64.9238 337.5,67C 350.482,80.123 359.482,95.623 364.5,113.5C 364.616,116.86 364.949,120.193 365.5,123.5C 367.898,123.741 369.898,123.074 371.5,121.5C 375.658,121.88 379.325,120.88 382.5,118.5C 386.192,117.971 389.358,118.971 392,121.5C 405.216,142.98 411.383,166.314 410.5,191.5C 418.507,191.334 426.507,191.5 434.5,192C 436.848,192.346 438.681,193.513 440,195.5C 441.615,209.765 441.948,224.098 441,238.5C 438.762,244.074 434.596,246.074 428.5,244.5C 431.496,263.919 431.163,283.253 427.5,302.5C 426.165,307.963 424.331,313.296 422,318.5C 421.503,321.146 421.336,323.813 421.5,326.5C 419.065,330.058 417.732,334.058 417.5,338.5C 417.5,338.833 417.5,339.167 417.5,339.5C 416.279,340.028 415.113,340.695 414,341.5C 413.535,340.069 412.701,338.903 411.5,338C 409.236,337.764 407.069,337.264 405,336.5C 402.959,337.423 400.792,337.756 398.5,337.5C 398.5,334.167 398.5,330.833 398.5,327.5C 402.187,315.397 404.854,303.063 406.5,290.5C 407.653,284.347 407.82,278.014 407,271.5C 406.187,273.436 405.687,275.436 405.5,277.5C 393.41,313.898 368.077,332.898 329.5,334.5C 288.042,330.215 263.209,307.548 255,266.5C 254.371,256.095 254.704,245.762 256,235.5C 250.731,230.755 244.564,229.255 237.5,231C 230.76,235.143 229.593,240.643 234,247.5C 236.071,281.192 222.905,307.025 194.5,325C 173.376,334.749 151.709,336.082 129.5,329C 123.099,326.477 117.432,322.977 112.5,318.5C 114.366,319.014 116.2,319.68 118,320.5C 119.826,319.99 119.993,319.156 118.5,318C 116.866,317.506 115.199,317.34 113.5,317.5C 114.488,308.445 114.821,299.445 114.5,290.5C 133.964,313.024 157.297,317.858 184.5,305C 208.82,287.912 216.653,265.078 208,236.5C 198.588,218.906 184.088,208.573 164.5,205.5C 165.239,205.631 165.906,205.464 166.5,205C 160.825,204.536 160.492,203.869 165.5,203C 164.128,202.598 162.795,202.098 161.5,201.5C 157.895,201.445 154.229,201.778 150.5,202.5C 153.447,203.321 156.447,203.821 159.5,204C 155.044,204.867 150.711,204.534 146.5,203C 146.167,202.667 145.833,202.333 145.5,202C 147.25,200.246 147.917,198.079 147.5,195.5C 146.167,195.5 144.833,195.5 143.5,195.5C 143.336,192.813 143.503,190.146 144,187.5C 145.049,188.517 146.216,188.684 147.5,188C 145.323,186.798 142.989,186.298 140.5,186.5C 142.657,185.593 144.99,184.927 147.5,184.5C 152.511,184.666 157.511,184.499 162.5,184C 163.52,179.392 164.854,174.892 166.5,170.5C 167.218,168.863 167.384,167.197 167,165.5C 153.427,155.797 138.927,147.797 123.5,141.5C 119.613,140.094 115.613,139.094 111.5,138.5C 109.955,138.511 108.622,138.844 107.5,139.5C 97.8455,155.699 93.8455,173.366 95.5,192.5C 93.9519,192.821 93.2852,193.821 93.5,195.5C 91.5,195.5 89.5,195.5 87.5,195.5C 87.6663,188.492 87.4996,181.492 87,174.5C 85.5027,172.041 85.336,169.541 86.5,167C 85.2652,159.752 84.4319,159.919 84,167.5C 83.5026,164.854 83.3359,162.187 83.5,159.5C 84.8221,159.67 85.9887,159.337 87,158.5C 88.3173,152.243 88.8173,145.909 88.5,139.5C 89.4629,136.256 90.7962,133.256 92.5,130.5C 94.0295,129.933 95.5295,129.267 97,128.5C 97.7648,125.804 98.9315,123.304 100.5,121C 104.152,120.501 107.818,120.335 111.5,120.5C 115.125,121.063 118.625,122.063 122,123.5C 125.833,104.84 133.666,88.1736 145.5,73.5C 148.764,71.9059 151.431,69.5725 153.5,66.5C 155.607,65.5318 157.941,65.1984 160.5,65.5C 161.246,67.3428 162.579,68.6761 164.5,69.5C 164.062,70.5063 163.396,70.5063 162.5,69.5C 161.614,70.325 161.281,71.325 161.5,72.5C 164.025,73.8916 166.192,73.5582 168,71.5C 168.308,72.3081 168.808,72.9747 169.5,73.5C 173.017,70.7027 176.017,71.2027 178.5,75C 182.754,76.3141 187.087,77.1474 191.5,77.5C 191.629,75.7839 191.962,74.1172 192.5,72.5C 192.5,72.1667 192.5,71.8333 192.5,71.5C 195.015,70.7369 197.015,69.2369 198.5,67C 200.108,66.342 201.275,66.842 202,68.5C 202.772,67.1509 203.939,66.3176 205.5,66C 204.09,65.6322 203.09,64.7989 202.5,63.5C 204.684,61.9078 207.018,60.5745 209.5,59.5C 210.456,57.9246 211.123,56.258 211.5,54.5C 219.508,46.7189 228.841,40.5522 239.5,36C 242.5,35.3333 245.5,35.3333 248.5,36C 254.214,38.7162 259.547,41.8829 264.5,45.5 Z M 403.5,215.5 C 409.176,215.334 414.843,215.501 420.5,216C 421.423,218.041 421.756,220.208 421.5,222.5C 415.491,222.666 409.491,222.499 403.5,222C 400.939,219.844 400.939,217.677 403.5,215.5 Z"/></g>
<g><path style="opacity:0.537" fill="#475973" d="M 264.5,45.5 C 268.049,46.7232 271.049,48.7232 273.5,51.5C 269.877,50.4181 266.877,48.4181 264.5,45.5 Z"/></g>
<g><path style="opacity:0.929" fill="#213551" d="M 211.5,54.5 C 211.123,56.258 210.456,57.9246 209.5,59.5C 207.018,60.5745 204.684,61.9078 202.5,63.5C 203.09,64.7989 204.09,65.6322 205.5,66C 203.939,66.3176 202.772,67.1509 202,68.5C 201.275,66.842 200.108,66.342 198.5,67C 197.015,69.2369 195.015,70.7369 192.5,71.5C 197.934,64.7274 204.267,59.0607 211.5,54.5 Z"/></g>
<g><path style="opacity:1" fill="#ebf5f6" d="M 240.5,54.5 C 241.5,54.5 242.5,54.5 243.5,54.5C 243.5,55.8333 243.5,57.1667 243.5,58.5C 230.624,65.5178 218.957,74.3511 208.5,85C 207.552,85.4828 206.552,85.6495 205.5,85.5C 204.711,85.2172 204.044,84.7172 203.5,84C 213.642,71.3521 225.975,61.5187 240.5,54.5 Z"/></g>
<g><path style="opacity:0.208" fill="#5d7181" d="M 153.5,66.5 C 151.431,69.5725 148.764,71.9059 145.5,73.5C 147.569,70.4275 150.236,68.0941 153.5,66.5 Z"/></g>
<g><path style="opacity:1" fill="#106392" d="M 244.5,58.5 C 249.77,60.8032 254.77,63.6365 259.5,67C 266.898,74.0008 274.564,80.5008 282.5,86.5C 280.849,87.9701 279.015,89.3034 277,90.5C 266.852,81.5109 256.019,73.5109 244.5,66.5C 244.5,63.8333 244.5,61.1667 244.5,58.5 Z"/></g>
<g><path style="opacity:1" fill="#1a2e4d" d="M 160.5,65.5 C 170.262,67.7181 179.595,71.0514 188.5,75.5C 189.852,74.4756 191.185,73.4756 192.5,72.5C 191.962,74.1172 191.629,75.7839 191.5,77.5C 187.087,77.1474 182.754,76.3141 178.5,75C 176.017,71.2027 173.017,70.7027 169.5,73.5C 168.808,72.9747 168.308,72.3081 168,71.5C 166.192,73.5582 164.025,73.8916 161.5,72.5C 161.281,71.325 161.614,70.325 162.5,69.5C 163.396,70.5063 164.062,70.5063 164.5,69.5C 162.579,68.6761 161.246,67.3428 160.5,65.5 Z"/></g>
<g><path style="opacity:1" fill="#3c91bd" d="M 244.5,54.5 C 259.264,60.9856 272.097,70.3189 283,82.5C 283.765,84.0657 283.598,85.3991 282.5,86.5C 274.564,80.5008 266.898,74.0008 259.5,67C 254.77,63.6365 249.77,60.8032 244.5,58.5C 244.5,57.1667 244.5,55.8333 244.5,54.5 Z"/></g>
<g><path style="opacity:1" fill="#5ac0d9" d="M 240.5,54.5 C 241.833,53.1667 243.167,53.1667 244.5,54.5C 244.5,55.8333 244.5,57.1667 244.5,58.5C 244.5,61.1667 244.5,63.8333 244.5,66.5C 233.003,73.3214 222.337,81.3214 212.5,90.5C 209.923,89.0569 207.59,87.3902 205.5,85.5C 206.552,85.6495 207.552,85.4828 208.5,85C 218.957,74.3511 230.624,65.5178 243.5,58.5C 243.5,57.1667 243.5,55.8333 243.5,54.5C 242.5,54.5 241.5,54.5 240.5,54.5 Z"/></g>
<g><path style="opacity:1" fill="#ecf5f7" d="M 325.5,84.5 C 326.434,85.5676 326.768,86.901 326.5,88.5C 313.816,93.0076 302.15,99.341 291.5,107.5C 288.142,106.134 287.475,104.301 289.5,102C 300.402,93.9733 312.402,88.14 325.5,84.5 Z"/></g>
<g><path style="opacity:1" fill="#e9f5f7" d="M 244.5,87.5 C 244.5,89.5 244.5,91.5 244.5,93.5C 238.926,95.6282 233.926,98.7949 229.5,103C 207.358,126.617 191.691,153.95 182.5,185C 182.164,186.03 181.497,186.53 180.5,186.5C 179.503,186.53 178.836,186.03 178.5,185C 186.548,151.227 202.882,122.227 227.5,98C 231.217,94.6153 235.217,91.6153 239.5,89C 241.025,87.9914 242.692,87.4914 244.5,87.5 Z"/></g>
<g><path style="opacity:1" fill="#ebf5f6" d="M 161.5,84.5 C 161.66,86.1992 161.494,87.8659 161,89.5C 152.527,102.555 145.694,116.222 140.5,130.5C 139.252,129.666 138.585,128.333 138.5,126.5C 141.624,112.254 147.458,99.2538 156,87.5C 157.264,85.393 159.097,84.393 161.5,84.5 Z"/></g>
<g><path style="opacity:1" fill="#1b6893" d="M 198.5,106.5 C 188.648,119.877 180.648,134.21 174.5,149.5C 167.654,130.109 163.654,110.109 162.5,89.5C 167.313,90.4932 171.98,91.9932 176.5,94C 183.996,98.0223 191.329,102.189 198.5,106.5 Z"/></g>
<g><path style="opacity:1" fill="#58b5db" d="M 326.5,88.5 C 326.5,92.8333 326.5,97.1667 326.5,101.5C 325.292,117.669 321.292,133.002 314.5,147.5C 307.874,133.583 300.207,120.25 291.5,107.5C 302.15,99.341 313.816,93.0076 326.5,88.5 Z"/></g>
<g><path style="opacity:1" fill="#59b5d7" d="M 161.5,84.5 C 165.222,85.0166 168.888,85.85 172.5,87C 182.592,91.2126 191.925,96.7126 200.5,103.5C 200.058,104.739 199.391,105.739 198.5,106.5C 191.329,102.189 183.996,98.0223 176.5,94C 171.98,91.9932 167.313,90.4932 162.5,89.5C 163.654,110.109 167.654,130.109 174.5,149.5C 163.652,142.324 152.319,135.991 140.5,130.5C 145.694,116.222 152.527,102.555 161,89.5C 161.494,87.8659 161.66,86.1992 161.5,84.5 Z"/></g>
<g><path style="opacity:1" fill="#115c87" d="M 348.5,129.5 C 337.171,134.917 326.338,141.25 316,148.5C 315.235,148.43 314.735,148.097 314.5,147.5C 321.292,133.002 325.292,117.669 326.5,101.5C 327.323,98.023 327.823,94.3563 328,90.5C 338.191,101.549 344.025,114.549 345.5,129.5C 346.5,129.5 347.5,129.5 348.5,129.5 Z"/></g>
<g><path style="opacity:1" fill="#4798c2" d="M 325.5,84.5 C 325.735,83.9033 326.235,83.5699 327,83.5C 328.49,84.3169 329.99,85.1502 331.5,86C 341.093,97.7764 347.426,111.11 350.5,126C 350.392,127.681 349.725,128.848 348.5,129.5C 347.5,129.5 346.5,129.5 345.5,129.5C 344.025,114.549 338.191,101.549 328,90.5C 327.823,94.3563 327.323,98.023 326.5,101.5C 326.5,97.1667 326.5,92.8333 326.5,88.5C 326.768,86.901 326.434,85.5676 325.5,84.5 Z"/></g>
<g><path style="opacity:1" fill="#4da3cb" d="M 244.5,87.5 C 261.409,97.5749 275.243,110.908 286,127.5C 296.556,144.273 304.056,162.273 308.5,181.5C 308.5,183.167 308.5,184.833 308.5,186.5C 307.5,186.5 306.5,186.5 305.5,186.5C 298.134,148.991 279.467,118.491 249.5,95C 248.234,94.6905 247.067,94.1905 246,93.5C 245.501,97.4862 245.334,101.486 245.5,105.5C 244.517,101.702 244.183,97.7016 244.5,93.5C 244.5,91.5 244.5,89.5 244.5,87.5 Z"/></g>
<g><path style="opacity:0.498" fill="#43516a" d="M 382.5,118.5 C 379.325,120.88 375.658,121.88 371.5,121.5C 374.907,119.926 378.573,118.926 382.5,118.5 Z"/></g>
<g><path style="opacity:0.424" fill="#536176" d="M 364.5,113.5 C 365.616,116.344 366.616,119.344 367.5,122.5C 368.736,121.754 370.07,121.421 371.5,121.5C 369.898,123.074 367.898,123.741 365.5,123.5C 364.949,120.193 364.616,116.86 364.5,113.5 Z"/></g>
<g><path style="opacity:0.922" fill="#2d3f57" d="M 111.5,120.5 C 107.818,120.335 104.152,120.501 100.5,121C 98.9315,123.304 97.7648,125.804 97,128.5C 95.5295,129.267 94.0295,129.933 92.5,130.5C 94.2513,123.914 98.418,119.914 105,118.5C 107.484,118.497 109.651,119.163 111.5,120.5 Z"/></g>
<g><path style="opacity:1" fill="#166692" d="M 308.5,181.5 C 309.461,183.265 309.795,185.265 309.5,187.5C 301.184,188.988 293.517,192.155 286.5,197C 280.431,201.269 274.931,206.102 270,211.5C 258.208,203.751 245.375,201.418 231.5,204.5C 232.263,203.732 233.263,203.232 234.5,203C 238.152,202.501 241.818,202.335 245.5,202.5C 245.5,170.167 245.5,137.833 245.5,105.5C 245.334,101.486 245.501,97.4862 246,93.5C 247.067,94.1905 248.234,94.6905 249.5,95C 279.467,118.491 298.134,148.991 305.5,186.5C 306.5,186.5 307.5,186.5 308.5,186.5C 308.5,184.833 308.5,183.167 308.5,181.5 Z"/></g>
<g><path style="opacity:1" fill="#ebf5f6" d="M 378.5,137.5 C 378.634,139.292 378.301,140.958 377.5,142.5C 359.023,147.571 342.356,156.071 327.5,168C 325.975,169.009 324.308,169.509 322.5,169.5C 321.566,167.761 321.566,166.095 322.5,164.5C 335.074,154.759 348.74,146.926 363.5,141C 368.399,139.309 373.399,138.143 378.5,137.5 Z"/></g>
<g><path style="opacity:1" fill="#50a9c9" d="M 123.5,141.5 C 138.927,147.797 153.427,155.797 167,165.5C 167.384,167.197 167.218,168.863 166.5,170.5C 152.369,159.766 137.036,151.1 120.5,144.5C 123.494,144.854 124.494,143.854 123.5,141.5 Z"/></g>
<g><path style="opacity:1" fill="#1c6690" d="M 120.5,144.5 C 137.036,151.1 152.369,159.766 166.5,170.5C 164.854,174.892 163.52,179.392 162.5,184C 157.511,184.499 152.511,184.666 147.5,184.5C 135.14,171.804 123.473,158.471 112.5,144.5C 112.47,143.503 112.97,142.836 114,142.5C 116.047,143.609 118.213,144.276 120.5,144.5 Z"/></g>
<g><path style="opacity:1" fill="#57b8db" d="M 244.5,93.5 C 244.183,97.7016 244.517,101.702 245.5,105.5C 245.5,137.833 245.5,170.167 245.5,202.5C 241.818,202.335 238.152,202.501 234.5,203C 233.263,203.232 232.263,203.732 231.5,204.5C 227.577,205.795 223.91,207.628 220.5,210C 219.5,210.667 218.5,210.667 217.5,210C 207.032,199.107 194.699,191.273 180.5,186.5C 181.497,186.53 182.164,186.03 182.5,185C 191.691,153.95 207.358,126.617 229.5,103C 233.926,98.7949 238.926,95.6282 244.5,93.5 Z"/></g>
<g><path style="opacity:1" fill="#ebf5f7" d="M 107.5,139.5 C 109.484,139.484 110.484,140.484 110.5,142.5C 102.575,157.787 99.2421,174.121 100.5,191.5C 100.5,191.833 100.5,192.167 100.5,192.5C 98.8333,192.5 97.1667,192.5 95.5,192.5C 93.8455,173.366 97.8455,155.699 107.5,139.5 Z"/></g>
<g><path style="opacity:1" fill="#165b85" d="M 377.5,144.5 C 383.2,151.399 386.7,159.399 388,168.5C 389.275,176.447 389.775,184.447 389.5,192.5C 381.493,192.666 373.493,192.5 365.5,192C 360.954,189.545 356.288,187.712 351.5,186.5C 353.144,186.714 354.644,186.38 356,185.5C 366.316,173.536 373.483,159.87 377.5,144.5 Z"/></g>
<g><path style="opacity:1" fill="#16779f" d="M 215.5,163.5 C 221.158,162.679 222.825,164.846 220.5,170C 218.527,170.495 216.527,170.662 214.5,170.5C 214.298,168.05 214.631,165.717 215.5,163.5 Z"/></g>
<g><path style="opacity:1" fill="#58badc" d="M 107.5,139.5 C 108.622,138.844 109.955,138.511 111.5,138.5C 115.613,139.094 119.613,140.094 123.5,141.5C 124.494,143.854 123.494,144.854 120.5,144.5C 118.213,144.276 116.047,143.609 114,142.5C 112.97,142.836 112.47,143.503 112.5,144.5C 113.093,149.966 114.26,155.3 116,160.5C 117.261,163.211 119.094,165.378 121.5,167C 120.833,167.333 120.167,167.667 119.5,168C 122.235,169.782 123.235,172.115 122.5,175C 123.865,176.682 125.365,176.849 127,175.5C 127,176.833 127,178.167 127,179.5C 128.771,180.304 130.271,181.471 131.5,183C 131.167,183.333 130.833,183.667 130.5,184C 131.738,183.923 132.738,184.089 133.5,184.5C 130.187,187.219 126.521,189.219 122.5,190.5C 115.197,191.497 107.863,191.831 100.5,191.5C 99.2421,174.121 102.575,157.787 110.5,142.5C 110.484,140.484 109.484,139.484 107.5,139.5 Z"/></g>
<g><path style="opacity:1" fill="#4dadd0" d="M 112.5,144.5 C 123.473,158.471 135.14,171.804 147.5,184.5C 144.99,184.927 142.657,185.593 140.5,186.5C 134.423,187.026 128.756,188.859 123.5,192C 115.841,192.5 108.174,192.666 100.5,192.5C 100.5,192.167 100.5,191.833 100.5,191.5C 107.863,191.831 115.197,191.497 122.5,190.5C 126.521,189.219 130.187,187.219 133.5,184.5C 132.738,184.089 131.738,183.923 130.5,184C 130.833,183.667 131.167,183.333 131.5,183C 130.271,181.471 128.771,180.304 127,179.5C 127,178.167 127,176.833 127,175.5C 125.365,176.849 123.865,176.682 122.5,175C 123.235,172.115 122.235,169.782 119.5,168C 120.167,167.667 120.833,167.333 121.5,167C 119.094,165.378 117.261,163.211 116,160.5C 114.26,155.3 113.093,149.966 112.5,144.5 Z"/></g>
<g><path style="opacity:1" fill="#59b5d8" d="M 377.5,142.5 C 377.5,143.167 377.5,143.833 377.5,144.5C 373.483,159.87 366.316,173.536 356,185.5C 354.644,186.38 353.144,186.714 351.5,186.5C 343.606,184.946 335.606,184.113 327.5,184C 325.91,179.141 324.243,174.307 322.5,169.5C 324.308,169.509 325.975,169.009 327.5,168C 342.356,156.071 359.023,147.571 377.5,142.5 Z"/></g>
<g><path style="opacity:1" fill="#4698bd" d="M 378.5,137.5 C 380.887,139.913 383.054,142.58 385,145.5C 392.135,160.303 394.968,175.97 393.5,192.5C 392.167,192.5 390.833,192.5 389.5,192.5C 389.775,184.447 389.275,176.447 388,168.5C 386.7,159.399 383.2,151.399 377.5,144.5C 377.5,143.833 377.5,143.167 377.5,142.5C 378.301,140.958 378.634,139.292 378.5,137.5 Z"/></g>
<g><path style="opacity:1" fill="#fcfdfd" d="M 164.5,205.5 C 184.088,208.573 198.588,218.906 208,236.5C 216.653,265.078 208.82,287.912 184.5,305C 157.297,317.858 133.964,313.024 114.5,290.5C 109.939,283.82 106.939,276.486 105.5,268.5C 105.279,264.205 106.612,263.538 109.5,266.5C 111.383,266.124 112.883,265.124 114,263.5C 113.52,251.278 116.854,240.278 124,230.5C 128.366,225.799 133.033,221.466 138,217.5C 138.497,214.854 138.664,212.187 138.5,209.5C 139.791,209.737 140.791,209.404 141.5,208.5C 148.896,205.87 156.562,204.87 164.5,205.5 Z"/></g>
<g><path style="opacity:1" fill="#fcfcfc" d="M 322.5,205.5 C 352.563,203.776 373.063,216.776 384,244.5C 388.967,276.406 376.467,298.24 346.5,310C 320.55,315.907 300.05,308.073 285,286.5C 270.718,258.046 275.885,233.879 300.5,214C 307.454,209.939 314.787,207.106 322.5,205.5 Z"/></g>
<g><path style="opacity:1" fill="#022044" d="M 88.5,139.5 C 88.8173,145.909 88.3173,152.243 87,158.5C 85.9887,159.337 84.8221,159.67 83.5,159.5C 83.3359,162.187 83.5026,164.854 84,167.5C 84.4319,159.919 85.2652,159.752 86.5,167C 85.336,169.541 85.5027,172.041 87,174.5C 87.4996,181.492 87.6663,188.492 87.5,195.5C 89.5,195.5 91.5,195.5 93.5,195.5C 93.2852,193.821 93.9519,192.821 95.5,192.5C 97.1667,192.5 98.8333,192.5 100.5,192.5C 108.174,192.666 115.841,192.5 123.5,192C 128.756,188.859 134.423,187.026 140.5,186.5C 142.989,186.298 145.323,186.798 147.5,188C 146.216,188.684 145.049,188.517 144,187.5C 143.503,190.146 143.336,192.813 143.5,195.5C 144.833,195.5 146.167,195.5 147.5,195.5C 147.917,198.079 147.25,200.246 145.5,202C 145.833,202.333 146.167,202.667 146.5,203C 150.711,204.534 155.044,204.867 159.5,204C 156.447,203.821 153.447,203.321 150.5,202.5C 154.229,201.778 157.895,201.445 161.5,201.5C 162.795,202.098 164.128,202.598 165.5,203C 160.492,203.869 160.825,204.536 166.5,205C 165.906,205.464 165.239,205.631 164.5,205.5C 156.562,204.87 148.896,205.87 141.5,208.5C 121.254,214.919 108.754,228.586 104,249.5C 103.333,254.5 103.333,259.5 104,264.5C 104.21,266.058 104.71,267.391 105.5,268.5C 106.939,276.486 109.939,283.82 114.5,290.5C 114.821,299.445 114.488,308.445 113.5,317.5C 115.199,317.34 116.866,317.506 118.5,318C 119.993,319.156 119.826,319.99 118,320.5C 116.2,319.68 114.366,319.014 112.5,318.5C 97.5658,306.982 87.8991,291.982 83.5,273.5C 83.44,272.957 83.1067,272.624 82.5,272.5C 81.1843,278.32 81.1843,283.987 82.5,289.5C 82.5,290.5 82.5,291.5 82.5,292.5C 81.9782,299.136 81.1449,299.136 80,292.5C 76.6966,295.597 72.6966,297.264 68,297.5C 67.0497,298.022 66.2164,298.689 65.5,299.5C 64.4824,297.406 63.4824,295.406 62.5,293.5C 63.6609,277.081 63.6609,260.414 62.5,243.5C 59.5,243.5 56.5,243.5 53.5,243.5C 53.5391,241.641 52.7058,240.308 51,239.5C 49.9491,224.737 50.6158,210.07 53,195.5C 60.9015,193.713 69.0682,192.88 77.5,193C 78.056,192.617 78.3893,192.117 78.5,191.5C 77.1258,173.121 80.4591,155.787 88.5,139.5 Z M 87.5,221.5 C 82.2599,222.449 76.9265,222.782 71.5,222.5C 70.4863,221.326 69.153,220.66 67.5,220.5C 67.2267,218.549 67.8934,217.049 69.5,216C 74.7753,214.641 80.1087,214.308 85.5,215C 88.3207,216.621 88.9874,218.788 87.5,221.5 Z"/></g>
<g><path style="opacity:0.008" fill="#f6fafa" d="M 67.5,220.5 C 69.153,220.66 70.4863,221.326 71.5,222.5C 70.8333,222.5 70.1667,222.5 69.5,222.5C 68.5,222.167 67.8333,221.5 67.5,220.5 Z"/></g>
<g><path style="opacity:0.184" fill="#62728a" d="M 87.5,221.5 C 84.9134,222.816 81.9134,223.483 78.5,223.5C 75.3138,223.498 72.3138,223.165 69.5,222.5C 70.1667,222.5 70.8333,222.5 71.5,222.5C 76.9265,222.782 82.2599,222.449 87.5,221.5 Z"/></g>
<g><path style="opacity:1" fill="#fcfcfd" d="M 405.5,277.5 C 406.485,281.634 406.818,285.968 406.5,290.5C 404.854,303.063 402.187,315.397 398.5,327.5C 374.209,384.984 331.542,420.318 270.5,433.5C 230.889,439.011 193.889,431.678 159.5,411.5C 115.669,383.654 90.0024,343.987 82.5,292.5C 82.5,291.5 82.5,290.5 82.5,289.5C 82.1786,283.974 82.5119,278.64 83.5,273.5C 87.8991,291.982 97.5658,306.982 112.5,318.5C 117.432,322.977 123.099,326.477 129.5,329C 151.709,336.082 173.376,334.749 194.5,325C 222.905,307.025 236.071,281.192 234,247.5C 229.593,240.643 230.76,235.143 237.5,231C 244.564,229.255 250.731,230.755 256,235.5C 254.704,245.762 254.371,256.095 255,266.5C 263.209,307.548 288.042,330.215 329.5,334.5C 368.077,332.898 393.41,313.898 405.5,277.5 Z"/></g>
<g><path style="opacity:1" fill="#9dd2e8" d="M 141.5,208.5 C 140.791,209.404 139.791,209.737 138.5,209.5C 138.664,212.187 138.497,214.854 138,217.5C 133.033,221.466 128.366,225.799 124,230.5C 116.854,240.278 113.52,251.278 114,263.5C 112.883,265.124 111.383,266.124 109.5,266.5C 106.612,263.538 105.279,264.205 105.5,268.5C 104.71,267.391 104.21,266.058 104,264.5C 103.333,259.5 103.333,254.5 104,249.5C 108.754,228.586 121.254,214.919 141.5,208.5 Z"/></g>
<g><path style="opacity:1" fill="#062043" d="M 322.5,241.5 C 336.386,241.289 340.886,247.623 336,260.5C 327.97,266.832 321.637,265.499 317,256.5C 315.087,249.97 316.92,244.97 322.5,241.5 Z"/></g>
<g><path style="opacity:1" fill="#0a244c" d="M 156.5,241.5 C 167.804,239.65 173.304,244.317 173,255.5C 169.875,264.363 164.042,266.863 155.5,263C 148.541,255.298 148.874,248.132 156.5,241.5 Z"/></g>
<g><path style="opacity:0.939" fill="#293a51" d="M 78.5,191.5 C 78.3893,192.117 78.056,192.617 77.5,193C 69.0682,192.88 60.9015,193.713 53,195.5C 50.6158,210.07 49.9491,224.737 51,239.5C 52.7058,240.308 53.5391,241.641 53.5,243.5C 56.5,243.5 59.5,243.5 62.5,243.5C 63.6609,260.414 63.6609,277.081 62.5,293.5C 62.5,297.167 62.5,300.833 62.5,304.5C 61.1682,300.736 60.3349,296.736 60,292.5C 59.0155,276.753 59.5155,261.086 61.5,245.5C 58.372,245.657 55.0387,245.157 51.5,244C 50.5399,242.581 49.7065,241.081 49,239.5C 48.3333,225.5 48.3333,211.5 49,197.5C 50.1667,195 52,193.167 54.5,192C 62.4931,191.5 70.4931,191.334 78.5,191.5 Z"/></g>
<g><path style="opacity:1" fill="#9dadbb" d="M 406.5,290.5 C 406.818,285.968 406.485,281.634 405.5,277.5C 405.687,275.436 406.187,273.436 407,271.5C 407.82,278.014 407.653,284.347 406.5,290.5 Z"/></g>
<g><path style="opacity:1" fill="#637587" d="M 83.5,273.5 C 82.5119,278.64 82.1786,283.974 82.5,289.5C 81.1843,283.987 81.1843,278.32 82.5,272.5C 83.1067,272.624 83.44,272.957 83.5,273.5 Z"/></g>
<g><path style="opacity:1" fill="#062449" d="M 82.5,292.5 C 90.0024,343.987 115.669,383.654 159.5,411.5C 157.883,412.038 156.216,412.371 154.5,412.5C 154.5,413.5 154.5,414.5 154.5,415.5C 150.167,415.5 145.833,415.5 141.5,415.5C 141.002,418.326 139.669,420.66 137.5,422.5C 131.122,418.969 125.122,414.802 119.5,410C 104.088,395.578 91.2542,379.078 81,360.5C 77.9494,355.066 75.4494,349.4 73.5,343.5C 73.4208,342.07 73.7542,340.736 74.5,339.5C 71.0398,334.514 68.3731,329.181 66.5,323.5C 63.748,317.489 62.4147,311.155 62.5,304.5C 62.5,300.833 62.5,297.167 62.5,293.5C 63.4824,295.406 64.4824,297.406 65.5,299.5C 66.2164,298.689 67.0497,298.022 68,297.5C 72.6966,297.264 76.6966,295.597 80,292.5C 81.1449,299.136 81.9782,299.136 82.5,292.5 Z"/></g>
<g><path style="opacity:0.588" fill="#3b516a" d="M 427.5,302.5 C 427.044,310.99 425.044,318.99 421.5,326.5C 421.336,323.813 421.503,321.146 422,318.5C 424.331,313.296 426.165,307.963 427.5,302.5 Z"/></g>
<g><path style="opacity:0.361" fill="#435772" d="M 421.5,326.5 C 421.541,331.044 420.208,335.044 417.5,338.5C 417.732,334.058 419.065,330.058 421.5,326.5 Z"/></g>
<g><path style="opacity:0.439" fill="#41556f" d="M 66.5,323.5 C 68.3731,329.181 71.0398,334.514 74.5,339.5C 73.7542,340.736 73.4208,342.07 73.5,343.5C 70,337.338 67.6666,330.671 66.5,323.5 Z"/></g>
<g><path style="opacity:0.999" fill="#08254a" d="M 398.5,327.5 C 398.5,330.833 398.5,334.167 398.5,337.5C 400.792,337.756 402.959,337.423 405,336.5C 407.069,337.264 409.236,337.764 411.5,338C 412.701,338.903 413.535,340.069 414,341.5C 415.113,340.695 416.279,340.028 417.5,339.5C 414.621,347.591 410.954,355.257 406.5,362.5C 405.094,362.973 404.427,363.973 404.5,365.5C 404.649,366.552 404.483,367.552 404,368.5C 401.59,371.065 399.424,373.732 397.5,376.5C 396.448,376.351 395.448,376.517 394.5,377C 393.167,377.667 393.167,378.333 394.5,379C 392.321,379.442 391.655,380.442 392.5,382C 391.552,382.483 390.552,382.649 389.5,382.5C 389.5,384.167 389.5,385.833 389.5,387.5C 370.173,411.682 346.173,429.849 317.5,442C 308.879,445.929 299.879,448.762 290.5,450.5C 291.978,448.636 293.978,447.303 296.5,446.5C 293.572,445.516 290.572,445.183 287.5,445.5C 287.5,441.167 287.5,436.833 287.5,432.5C 291.276,432.531 291.443,431.864 288,430.5C 284.224,430.847 280.891,432.181 278,434.5C 275.619,433.565 273.119,433.232 270.5,433.5C 331.542,420.318 374.209,384.984 398.5,327.5 Z"/></g>
<g><path style="opacity:1" fill="#052347" d="M 254.5,403.5 C 245.467,403.716 236.467,403.383 227.5,402.5C 209.679,399.006 194.513,390.673 182,377.5C 177.697,371.657 177.53,365.824 181.5,360C 185.039,358.496 188.705,358.163 192.5,359C 214.247,382.189 240.247,388.522 270.5,378C 274.993,375.921 279.326,373.588 283.5,371C 288.219,365.093 293.886,360.593 300.5,357.5C 311.359,360.551 313.859,366.884 308,376.5C 293.731,392.431 275.898,401.431 254.5,403.5 Z"/></g>
<g><path style="opacity:0.024" fill="#7c96ac" d="M 406.5,362.5 C 406.573,364.027 405.906,365.027 404.5,365.5C 404.427,363.973 405.094,362.973 406.5,362.5 Z"/></g>
<g><path style="opacity:0.794" fill="#2f4462" d="M 397.5,376.5 C 395.6,380.732 392.933,384.399 389.5,387.5C 389.5,385.833 389.5,384.167 389.5,382.5C 390.552,382.649 391.552,382.483 392.5,382C 391.655,380.442 392.321,379.442 394.5,379C 393.167,378.333 393.167,377.667 394.5,377C 395.448,376.517 396.448,376.351 397.5,376.5 Z"/></g>
<g><path style="opacity:1" fill="#aab6c1" d="M 227.5,402.5 C 236.467,403.383 245.467,403.716 254.5,403.5C 246.344,404.657 238.01,404.823 229.5,404C 228.584,403.722 227.918,403.222 227.5,402.5 Z"/></g>
<g><path style="opacity:1" fill="#072246" d="M 159.5,411.5 C 193.889,431.678 230.889,439.011 270.5,433.5C 273.119,433.232 275.619,433.565 278,434.5C 280.891,432.181 284.224,430.847 288,430.5C 291.443,431.864 291.276,432.531 287.5,432.5C 287.5,436.833 287.5,441.167 287.5,445.5C 290.572,445.183 293.572,445.516 296.5,446.5C 293.978,447.303 291.978,448.636 290.5,450.5C 288.786,451.738 286.786,452.405 284.5,452.5C 279.951,452.624 275.618,453.291 271.5,454.5C 235.953,460.023 201.619,455.523 168.5,441C 159.167,436 149.833,431 140.5,426C 139.29,424.961 138.29,423.794 137.5,422.5C 139.669,420.66 141.002,418.326 141.5,415.5C 145.833,415.5 150.167,415.5 154.5,415.5C 154.5,414.5 154.5,413.5 154.5,412.5C 156.216,412.371 157.883,412.038 159.5,411.5 Z"/></g>
<g><path style="opacity:0.129" fill="#4e5e78" d="M 284.5,452.5 C 280.455,454.177 276.122,454.844 271.5,454.5C 275.618,453.291 279.951,452.624 284.5,452.5 Z"/></g>
</svg>
